<svg width="120" height="120" viewBox="0 0 120 120" fill="none" xmlns="http://www.w3.org/2000/svg">
  <defs>
    <linearGradient id="sol" x1="0" y1="0" x2="120" y2="120" gradientUnits="userSpaceOnUse">
      <stop offset="0" stop-color="#9945FF"/>
      <stop offset="1" stop-color="#14F195"/>
    </linearGradient>
    <filter id="shadow" x="-20%" y="-20%" width="140%" height="140%">
      <feDropShadow dx="0" dy="4" stdDeviation="6" flood-color="#9945FF" flood-opacity="0.35"/>
    </filter>
  </defs>
  <rect x="8" y="8" width="104" height="104" rx="28" fill="url(#sol)" filter="url(#shadow)"/>
  <rect x="8" y="8" width="104" height="104" rx="28" fill="#000" fill-opacity="0.06"/>
  <!-- bug glyph (matches the app nav logo) -->
  <svg x="32" y="32" width="56" height="56" viewBox="0 0 24 24" fill="none" stroke="#FFFFFF" stroke-width="1.6" stroke-linecap="round" stroke-linejoin="round">
    <path d="M12 14l-1 5M9 14l-2 5M15 14l2 5M12 14a6 6 0 006-6V7a6 6 0 00-12 0v1a6 6 0 006 6zM12 14a6 6 0 01-6-6M12 14a6 6 0 006-6"/>
  </svg>
</svg>
